<svg width="148" height="201" viewBox="0 0 148 201" fill="none" xmlns="http://www.w3.org/2000/svg">
<g filter="url(#filter0_dd_1_4)">
<path d="M11.9235 108.136C11.7824 103.264 12.9088 99.0934 15.3026 95.6226C17.8097 92.1485 21.2461 89.4412 25.6117 87.5006C26.1715 87.2576 26.573 87.4161 26.816 87.9759C27.0589 88.5358 27.0171 89.0472 26.6903 89.5102C24.684 90.7022 23.0922 92.5057 21.915 94.9208C20.8511 97.3326 20.3684 100.238 20.4668 103.636C20.667 110.547 23.3735 115.911 28.5863 119.728C33.799 123.545 40.4837 125.336 48.6402 125.099C59.2891 124.791 66.8185 122.475 71.2285 118.152C75.7518 113.826 77.915 108.265 77.718 101.467C77.5342 95.1234 76.0706 89.6102 73.3272 84.9277C70.5805 80.1319 67.5604 75.6841 64.267 71.5845C61.0835 67.3682 58.1266 63.1454 55.3963 58.916C52.666 54.6867 51.2221 49.8531 51.0646 44.4154C50.9727 41.2434 51.5638 38.165 52.8379 35.1802C54.2252 32.1921 56.1323 29.5291 58.5589 27.1911C61.0955 24.7366 64.1001 22.7788 67.5726 21.3176C71.045 19.8565 74.8771 19.0651 79.0686 18.9437C84.8462 18.7763 89.4138 19.8912 92.7713 22.2883C96.2388 24.5688 98.0217 27.4084 98.1202 30.8069C98.176 32.7328 97.3953 35.1364 95.7781 38.0178C94.2708 40.7826 92.6971 43.2092 91.0569 45.2976C90.6103 45.5373 90.2122 45.4921 89.8625 45.1621C89.5128 44.8321 89.388 44.4389 89.4882 43.9824C90.0283 43.0598 90.4503 41.9704 90.754 40.7144C91.1678 39.3419 91.3517 37.8626 91.3058 36.2766C91.2532 34.464 90.8075 32.7762 89.9686 31.2132C89.1263 29.5369 87.9524 28.1536 86.4469 27.0634C84.9381 25.86 83.2109 24.9463 81.2653 24.3223C79.3165 23.5851 77.2659 23.2477 75.1134 23.3101C69.4492 23.4742 65.3536 24.9534 62.8268 27.7478C60.3 30.5421 59.099 34.0917 59.2237 38.3966C59.3222 41.7952 60.0388 45.0058 61.3735 48.0284C62.8183 50.9344 64.5479 53.8889 66.5624 56.8918C68.5736 59.7814 70.6997 62.7244 72.9408 65.7208C75.2918 68.6006 77.4779 71.6552 79.4989 74.8847C81.5167 78.0009 83.2012 81.3535 84.5523 84.9426C86.0135 88.4151 86.8048 92.2471 86.9263 96.4387C87.0543 100.857 86.0412 105.025 83.8871 108.942C81.8463 112.856 78.9426 116.342 75.1763 119.399C71.4066 122.342 66.9975 124.738 61.9488 126.585C56.8969 128.318 51.4255 129.271 45.5347 129.441C34.7725 129.753 26.4986 127.895 20.7128 123.868C15.0404 119.837 12.1106 114.593 11.9235 108.136Z" fill="#ECE7E1"/>
<path d="M100.153 73.0033C94.8593 74.2575 90.2614 76.539 86.3591 79.8478C82.5162 83.0603 79.4601 86.9907 77.1906 91.6392C74.9806 96.1913 73.5982 101.287 73.0435 106.927C72.5482 112.471 73.0106 118.239 74.4308 124.234C75.685 129.527 77.569 133.315 80.0828 135.597C82.6744 137.86 85.9553 138.521 89.9254 137.581C94.5182 136.493 98.1932 134.306 100.95 131.022C103.689 127.66 105.167 123.487 105.383 118.503C105.392 117.843 105.778 117.218 106.542 116.625C107.287 115.955 108.109 115.432 109.006 115.055C109.903 114.678 110.76 114.475 111.575 114.446C112.372 114.34 112.826 114.52 112.936 114.987C112.529 124.374 111.36 132.626 109.429 139.743C107.498 146.859 104.862 152.91 101.521 157.895C98.1987 162.957 94.2288 167.022 89.6116 170.089C84.9943 173.156 79.8443 175.363 74.1617 176.709C66.455 178.535 60.1996 178.332 55.3955 176.099C50.6692 173.848 47.6605 169.998 46.3695 164.549C45.5948 161.28 45.8875 158.004 47.2475 154.722C48.6075 151.44 51.2049 148.522 55.0396 145.97C55.392 145.722 55.6624 145.822 55.8509 146.271C56.021 146.641 55.9872 147.019 55.7496 147.405C54.1395 148.937 53.0795 150.709 52.5696 152.721C52.119 154.636 52.2442 157.073 52.9451 160.031C54.3284 165.87 57.0718 169.988 61.1753 172.387C65.3751 174.845 70.5499 175.345 76.6996 173.888C80.9033 172.892 84.6387 171.308 87.906 169.136C91.1918 167.043 94.0115 164.196 96.365 160.596C98.737 157.074 100.615 152.683 102 147.422C103.402 142.239 104.362 136.051 104.877 128.859C102.944 131.454 100.586 133.822 97.8041 135.961C95.0817 138.003 91.8522 139.467 88.1157 140.353C76.5946 143.082 69.5984 139.232 67.1269 128.8C66.2785 125.22 65.9863 121.384 66.2502 117.293C66.5735 113.105 67.3916 108.924 68.7044 104.749C69.9987 100.496 71.7766 96.3749 74.0379 92.3862C76.2808 88.3195 78.8975 84.6165 81.8882 81.277C84.9567 77.9191 88.3786 75.0119 92.154 72.5553C95.9293 70.0988 100.036 68.3448 104.473 67.2935C108.209 66.4082 111.4 66.5155 114.045 67.6154C116.69 68.7153 118.307 70.5107 118.897 73.0017C119.1 73.858 119.068 74.9346 118.799 76.2314C118.531 77.5281 118.116 78.9007 117.555 80.3491C117.053 81.7012 116.513 83.0626 115.933 84.4331C115.335 85.7258 114.865 86.8649 114.523 87.8503C114.326 88.0613 114.054 88.1259 113.705 88.0439C113.339 87.8842 113.157 87.6394 113.161 87.3096C113.846 85.3388 114.264 83.6364 114.418 82.2023C114.649 80.7499 114.58 79.2452 114.212 77.6883C113.695 75.5086 112.259 73.958 109.903 73.0363C107.606 72.0183 104.356 72.0073 100.153 73.0033Z" fill="#ECE7E1"/>
</g>
<defs>
<filter id="filter0_dd_1_4" x="5.39788" y="18.4021" width="138.387" height="171.896" filterUnits="userSpaceOnUse" color-interpolation-filters="sRGB">
<feFlood flood-opacity="0" result="BackgroundImageFix"/>
<feColorMatrix in="SourceAlpha" type="matrix" values="0 0 0 0 0 0 0 0 0 0 0 0 0 0 0 0 0 0 127 0" result="hardAlpha"/>
<feOffset dy="4"/>
<feGaussianBlur stdDeviation="2"/>
<feComposite in2="hardAlpha" operator="out"/>
<feColorMatrix type="matrix" values="0 0 0 0 0 0 0 0 0 0 0 0 0 0 0 0 0 0 0.25 0"/>
<feBlend mode="normal" in2="BackgroundImageFix" result="effect1_dropShadow_1_4"/>
<feColorMatrix in="SourceAlpha" type="matrix" values="0 0 0 0 0 0 0 0 0 0 0 0 0 0 0 0 0 0 127 0" result="hardAlpha"/>
<feOffset dy="4"/>
<feGaussianBlur stdDeviation="2"/>
<feComposite in2="hardAlpha" operator="out"/>
<feColorMatrix type="matrix" values="0 0 0 0 0 0 0 0 0 0 0 0 0 0 0 0 0 0 0.25 0"/>
<feBlend mode="normal" in2="effect1_dropShadow_1_4" result="effect2_dropShadow_1_4"/>
<feBlend mode="normal" in="SourceGraphic" in2="effect2_dropShadow_1_4" result="shape"/>
</filter>
</defs>
</svg>
